<?xml version="1.0" standalone="no"?>
<!DOCTYPE svg PUBLIC "-//W3C//DTD SVG 20010904//EN"
 "http://www.w3.org/TR/2001/REC-SVG-20010904/DTD/svg10.dtd">
<svg version="1.0" xmlns="http://www.w3.org/2000/svg"
 width="500.000000pt" height="500.000000pt" viewBox="0 0 500.000000 500.000000"
 preserveAspectRatio="xMidYMid meet">
<metadata>
Created by potrace 1.16, written by Peter Selinger 2001-2019
</metadata>
<g transform="translate(0.000000,500.000000) scale(0.100000,-0.100000)"
fill="#000000" stroke="none">
<path d="M2477 3624 c-21 -12 -27 -22 -27 -48 0 -42 19 -58 61 -54 24 2 37 11
50 35 16 29 16 32 1 46 -36 31 -56 36 -85 21z"/>
<path d="M2607 3610 c-8 -12 -13 -29 -10 -39 2 -10 0 -44 -6 -76 -13 -69 -4
-85 46 -85 26 0 36 5 40 20 3 10 16 26 29 35 13 8 24 22 24 31 0 8 7 14 17 12
10 -2 22 7 29 21 15 30 0 70 -30 76 -12 2 -34 6 -51 9 -16 3 -40 8 -51 12 -15
4 -26 -1 -37 -16z"/>
<path d="M2265 3606 c-9 -7 -16 -35 -19 -81 -5 -77 -13 -108 -27 -99 -5 3 -23
34 -40 70 -17 35 -35 66 -39 69 -17 11 -68 -17 -74 -40 -5 -21 -9 -23 -29 -14
-27 12 -107 -4 -107 -22 0 -5 7 -23 15 -38 21 -41 31 -111 16 -111 -17 0 -51
19 -84 46 -34 29 -67 30 -97 6 l-22 -18 20 -59 c28 -85 36 -125 23 -125 -11 0
-76 54 -102 84 -19 23 -51 15 -74 -20 -13 -20 -14 -28 -4 -40 6 -8 18 -14 25
-14 8 0 14 -4 14 -10 0 -15 -16 -12 -30 5 -17 20 -40 18 -67 -4 -34 -28 -28
-44 31 -90 30 -23 57 -49 60 -57 9 -23 46 -13 70 19 l21 29 -24 19 c-13 11
-21 22 -18 26 4 3 13 0 21 -6 23 -19 69 -9 82 18 7 13 22 28 35 35 18 9 24 20
24 43 0 31 0 31 42 26 36 -4 45 -1 64 21 12 14 31 26 40 26 10 0 23 9 29 19 5
11 23 22 39 26 16 3 32 13 35 21 5 12 9 12 26 2 16 -10 25 -10 49 5 16 9 40
17 53 17 14 0 34 13 50 32 l28 33 17 -22 c13 -15 28 -22 51 -21 50 2 59 21 30
66 -14 20 -36 57 -49 82 -19 34 -31 46 -56 51 -19 4 -39 2 -48 -5z"/>
<path d="M2823 3583 c-7 -3 -13 -12 -13 -21 0 -9 -12 -47 -26 -84 -15 -36 -24
-73 -21 -81 7 -18 131 -61 157 -54 13 3 21 -1 25 -13 3 -10 20 -26 38 -35 18
-9 45 -24 61 -32 36 -19 60 -8 64 32 2 15 19 44 38 63 41 42 40 59 -2 87 -33
21 -93 57 -107 63 -4 2 -17 -16 -28 -40 -43 -90 -72 -131 -64 -88 2 13 0 29
-6 37 -8 9 -4 21 15 44 37 44 31 70 -20 85 -22 6 -54 18 -70 27 -16 8 -35 12
-41 10z"/>
<path d="M3199 3368 c-7 -13 -25 -36 -41 -51 -16 -16 -36 -43 -45 -60 l-16
-31 41 -37 c42 -37 83 -52 122 -44 18 3 20 2 10 -10 -14 -17 -7 -67 12 -91 41
-51 59 -64 88 -64 24 0 35 7 50 33 10 17 33 38 50 45 33 15 37 30 16 70 -23
44 -61 74 -98 75 -28 2 -35 -3 -48 -30 -15 -32 -33 -42 -44 -24 -3 4 6 19 19
31 28 26 33 80 12 116 -16 26 -91 94 -105 94 -6 0 -17 -10 -23 -22z m61 -108
c0 -5 -5 -10 -11 -10 -5 0 -7 5 -4 10 3 6 8 10 11 10 2 0 4 -4 4 -10z"/>
<path d="M2435 3330 c3 -5 8 -10 11 -10 2 0 4 5 4 10 0 6 -5 10 -11 10 -5 0
-7 -4 -4 -10z"/>
<path d="M2216 3317 c-19 -14 -19 -15 6 -31 25 -16 88 -13 88 5 0 4 6 9 13 12
15 5 -33 -2 -54 -9 -9 -2 -20 4 -25 16 -8 18 -11 19 -28 7z"/>
<path d="M2390 3261 c-8 -6 -31 -11 -51 -11 -20 0 -42 -7 -49 -15 -7 -8 -16
-13 -20 -10 -7 4 -96 -33 -130 -55 -8 -5 -29 -16 -45 -25 -135 -68 -319 -309
-340 -445 -3 -21 6 -5 22 40 71 188 209 341 390 429 126 61 190 76 335 76 141
0 138 11 -5 20 -57 4 -98 2 -107 -4z"/>
<path d="M2640 3242 c0 -5 15 -12 34 -15 18 -3 69 -19 112 -37 200 -80 351
-233 431 -437 24 -62 32 -76 28 -48 -13 77 -87 208 -175 309 -72 82 -245 189
-350 216 -25 6 -53 13 -62 16 -10 3 -18 1 -18 -4z"/>
<path d="M1469 3063 c-38 -61 -41 -75 -29 -114 10 -31 17 -36 43 -37 37 -1 70
-35 40 -40 -10 -2 -24 -11 -30 -20 -8 -9 -13 -11 -13 -4 0 7 -7 12 -15 12 -8
0 -15 9 -15 20 0 21 -45 39 -60 24 -17 -18 -61 -137 -53 -144 4 -4 36 -17 71
-30 66 -24 71 -30 47 -50 -13 -10 -23 -9 -56 5 l-40 19 -27 -27 c-18 -18 -30
-46 -39 -89 -15 -75 -7 -88 51 -88 22 0 58 -5 79 -11 52 -14 70 1 65 57 -2 24
2 46 10 53 6 7 12 26 12 44 0 18 9 50 20 72 11 22 20 47 20 56 0 9 7 22 15 29
11 9 14 22 10 42 -4 16 -2 28 3 28 6 0 24 19 41 42 35 47 40 91 15 126 -13 19
-21 22 -50 16 -21 -4 -34 -2 -34 4 0 15 -29 42 -45 42 -7 0 -23 -17 -36 -37z
m34 -266 c-3 -5 -10 -4 -15 1 -6 6 -7 16 -3 22 6 9 9 9 16 -1 4 -7 5 -17 2
-22z"/>
<path d="M3489 3012 l-31 -28 19 -34 c23 -41 51 -48 83 -22 19 15 22 24 16 54
-4 24 -14 39 -31 46 -22 10 -29 8 -56 -16z"/>
<path d="M3550 2879 c-19 -10 -52 -25 -72 -33 -44 -17 -48 -36 -20 -109 24
-62 33 -70 64 -58 40 15 44 32 15 53 -15 11 -27 23 -27 28 0 4 23 14 50 21 67
17 86 38 74 81 -12 40 -34 44 -84 17z"/>
<path d="M1990 2842 c-5 -2 -10 -12 -10 -22 0 -9 -7 -23 -15 -30 -8 -7 -15
-23 -15 -35 0 -12 -18 -43 -40 -68 -22 -25 -40 -50 -40 -55 0 -19 31 -42 57
-42 15 0 54 -5 88 -11 51 -9 64 -15 78 -39 9 -15 17 -42 17 -58 0 -49 17 -82
49 -93 18 -6 34 -22 42 -41 7 -17 23 -43 35 -58 50 -58 52 -245 4 -280 -25
-18 -25 -27 0 -35 11 -4 18 -11 15 -16 -4 -5 14 -9 39 -9 42 0 46 2 46 25 0
14 4 25 9 25 5 0 7 26 4 58 -4 44 1 77 22 147 34 110 43 122 82 107 54 -21
151 -33 188 -23 31 8 39 7 60 -13 14 -13 25 -28 25 -34 0 -21 29 -21 33 1 l4
22 2 -22 c2 -34 28 -27 47 12 9 19 19 35 23 35 3 0 6 -45 5 -100 0 -86 -3
-104 -22 -130 -24 -32 -16 -46 21 -36 36 9 47 50 47 170 0 66 4 106 9 100 5
-5 18 -40 30 -77 22 -72 20 -138 -5 -188 -16 -31 -10 -39 28 -39 25 0 33 9 29
34 -1 5 3 12 9 16 7 4 7 16 -1 39 -7 20 -10 66 -6 118 4 64 1 95 -10 122 -12
27 -14 56 -10 116 7 94 17 145 27 145 13 0 20 -40 26 -135 7 -107 27 -178 58
-202 12 -10 27 -27 34 -38 10 -18 11 -15 12 21 0 32 -7 49 -35 81 -45 53 -55
81 -55 156 0 37 -9 89 -22 130 -20 61 -27 71 -60 88 -26 14 -65 21 -121 23
-112 5 -280 22 -414 41 -87 12 -122 13 -153 5 -53 -14 -65 -6 -34 25 45 45 17
84 -38 52 -38 -22 -53 -21 -76 3 -15 16 -29 20 -65 18 -25 -2 -51 -4 -57 -6z"/>
<path d="M3612 2698 c-7 -8 -7 -19 -2 -28 7 -11 0 -17 -28 -27 -20 -7 -47 -13
-58 -13 -26 0 -32 -15 -24 -55 6 -30 6 -30 68 -27 57 3 62 2 62 -17 0 -14 9
-23 25 -27 49 -12 19 -29 -61 -34 l-79 -5 3 -65 c1 -44 8 -73 20 -90 35 -46
125 -44 164 4 22 27 25 143 4 172 -10 13 -11 23 -4 31 6 7 8 30 4 50 -22 146
-19 138 -52 141 -17 2 -36 -3 -42 -10z m5 -324 c-3 -3 -12 -4 -19 -1 -8 3 -5
6 6 6 11 1 17 -2 13 -5z"/>
<path d="M1734 2648 c-5 -7 -10 -165 -12 -350 l-3 -338 -453 0 c-385 0 -461
-2 -507 -16 -63 -19 -91 -42 -119 -99 -19 -40 -20 -61 -20 -543 0 -430 2 -508
15 -539 20 -48 41 -71 87 -94 36 -18 93 -19 1778 -19 1914 0 1768 -5 1827 58
53 57 53 57 53 586 0 296 -4 505 -10 526 -12 43 -53 91 -100 116 -33 18 -66
19 -512 22 l-476 4 -4 331 c-2 252 -6 337 -16 352 -12 18 -13 17 -7 -10 4 -16
9 -180 12 -362 l5 -332 492 -3 493 -3 35 -27 c20 -15 45 -47 57 -71 20 -42 21
-56 21 -535 0 -421 -2 -498 -15 -529 -20 -48 -41 -71 -87 -94 -36 -18 -89 -19
-1773 -19 -1475 0 -1740 2 -1763 14 -41 21 -81 68 -92 107 -13 45 -13 993 0
1038 12 42 43 77 92 102 35 18 65 19 518 19 l480 0 0 293 c0 160 5 321 10 356
11 65 9 83 -6 59z"/>
<path d="M1309 2461 c-21 -17 -24 -30 -27 -99 l-4 -81 98 6 c55 3 102 11 106
17 12 17 9 61 -4 74 -7 7 -20 12 -30 12 -11 0 -18 7 -18 20 0 29 -44 70 -73
70 -14 0 -35 -9 -48 -19z m61 -75 c0 -11 -19 -15 -25 -6 -3 5 1 10 9 10 9 0
16 -2 16 -4z"/>
<path d="M884 1736 c6 -26 -30 -159 -67 -248 l-16 -38 29 0 c26 0 29 4 32 38
3 37 3 37 52 40 54 4 66 -5 66 -50 0 -28 1 -28 65 -28 l64 0 -18 33 c-20 34
-81 223 -81 251 0 12 -10 16 -42 16 -24 0 -54 3 -67 7 -22 6 -23 4 -17 -21z
m55 -107 c7 -23 15 -47 18 -55 4 -11 -5 -14 -37 -14 -32 0 -41 3 -37 14 3 8
11 32 18 55 7 23 15 41 19 41 4 0 12 -18 19 -41z"/>
<path d="M1130 1737 c0 -14 5 -29 10 -32 13 -8 13 -211 0 -236 -9 -17 -7 -19
17 -19 l28 0 -3 97 -2 98 40 -76 c49 -96 77 -119 141 -119 l47 0 -10 38 c-6
21 -8 84 -5 150 3 61 2 112 -3 112 -5 0 -16 3 -26 7 -15 5 -16 2 -9 -28 4 -19
9 -72 12 -118 3 -63 2 -82 -8 -79 -7 2 -36 52 -66 111 l-54 107 -39 0 c-21 0
-45 3 -54 6 -12 5 -16 0 -16 -19z"/>
<path d="M1455 1733 c13 -47 17 -209 6 -247 l-9 -36 61 0 62 0 -2 147 -2 148
-36 2 c-20 0 -47 4 -62 8 -24 6 -25 4 -18 -22z"/>
<path d="M1634 1746 c-3 -9 -1 -23 6 -31 12 -14 8 -164 -6 -237 -5 -24 -2 -28
18 -28 23 0 23 2 20 73 -2 39 0 83 5 96 9 21 11 17 27 -40 24 -86 40 -109 75
-109 38 0 46 12 70 104 12 44 22 81 24 83 9 9 14 -174 6 -189 -9 -16 -4 -18
57 -18 59 0 65 2 59 18 -4 9 -9 77 -12 150 l-6 133 -55 -3 -55 -3 -21 -77
c-12 -42 -23 -79 -27 -82 -3 -3 -17 33 -33 79 l-27 85 -44 0 c-24 0 -50 3 -59
6 -10 4 -18 0 -22 -10z"/>
<path d="M2114 1737 c6 -25 -55 -240 -75 -262 -16 -17 -9 -25 22 -25 24 0 30
3 25 16 -3 8 -3 26 0 40 6 22 11 24 60 24 l54 0 6 -40 7 -40 65 0 c61 0 64 1
50 18 -19 20 -88 226 -88 259 0 21 -5 23 -49 23 -27 0 -57 3 -67 7 -14 5 -16
2 -10 -20z m55 -121 c16 -65 15 -67 -21 -61 -18 4 -34 8 -36 10 -7 7 31 104
39 100 3 -3 12 -25 18 -49z"/>
<path d="M2365 1729 c13 -62 17 -175 7 -227 l-9 -52 118 0 119 0 0 50 c0 38
-3 48 -14 44 -8 -3 -20 -19 -26 -35 -10 -24 -18 -29 -47 -29 l-35 0 4 135 3
135 -47 0 c-25 0 -54 3 -64 7 -15 5 -16 2 -9 -28z"/>
<path d="M2765 1729 c13 -61 17 -237 5 -258 -10 -20 -8 -21 52 -21 l63 0 -3
75 c-3 70 -2 75 17 75 12 0 21 -6 21 -15 0 -8 7 -15 15 -15 11 0 15 11 15 40
0 40 -15 54 -26 25 -4 -8 -15 -15 -25 -15 -16 0 -19 8 -19 50 l0 50 34 0 c29
0 36 -5 45 -30 16 -48 41 -39 41 15 l0 45 -104 0 c-57 0 -112 3 -122 7 -15 5
-16 2 -9 -28z"/>
<path d="M3045 1605 l0 -155 120 0 121 0 -1 45 c0 51 -20 59 -42 16 -15 -32
-39 -44 -69 -37 -22 6 -24 11 -24 66 0 58 1 60 25 60 14 0 28 -7 31 -15 11
-28 24 -15 24 25 0 40 -15 54 -26 25 -4 -8 -17 -15 -30 -15 -22 0 -24 4 -24
50 l0 50 38 0 c32 0 39 -5 52 -32 24 -52 40 -47 40 11 l0 51 -104 0 c-57 0
-110 2 -118 5 -11 4 -13 -24 -13 -150z"/>
<path d="M3325 1750 c-4 -6 -2 -24 5 -40 8 -19 11 -69 9 -145 l-4 -115 117 0
118 0 0 45 c0 52 -14 58 -38 15 -14 -25 -23 -30 -54 -30 l-38 0 0 60 c0 57 1
60 25 60 16 0 25 -6 25 -15 0 -8 7 -15 15 -15 11 0 15 11 15 40 0 29 -4 40
-15 40 -8 0 -15 -7 -15 -15 0 -9 -9 -15 -25 -15 -23 0 -25 3 -25 50 l0 50 40
0 c33 0 40 -3 40 -19 0 -20 25 -51 41 -51 5 0 9 23 9 50 l0 50 -104 0 c-57 0
-111 3 -119 6 -8 3 -18 0 -22 -6z"/>
<path d="M3614 1729 c13 -64 17 -154 8 -216 l-9 -63 86 0 c107 0 160 21 184
73 34 70 15 166 -39 202 -22 16 -47 20 -109 21 -44 0 -91 4 -104 8 -22 8 -23
7 -17 -25z m172 -44 c30 -74 8 -205 -35 -205 -20 0 -21 6 -21 120 0 114 1 120
21 120 13 0 25 -11 35 -35z"/>
<path d="M3975 1735 c-37 -20 -45 -32 -45 -71 0 -41 22 -66 95 -107 48 -26 60
-38 60 -57 0 -49 -94 -32 -110 20 -10 31 -32 24 -37 -11 -4 -28 -1 -33 28 -45
48 -20 153 -18 184 3 34 23 40 33 40 70 0 25 -9 39 -42 67 -23 20 -46 36 -51
36 -20 0 -67 42 -67 60 0 44 61 36 85 -10 9 -17 21 -30 28 -30 12 0 37 52 37
76 0 5 -40 10 -88 12 -64 2 -95 -2 -117 -13z"/>
<path d="M2445 1189 c-4 -5 -2 -23 5 -39 8 -19 11 -71 9 -151 l-4 -121 110 4
c124 4 159 18 170 69 8 37 -15 76 -50 85 -30 7 -30 9 -5 34 20 20 26 55 12 77
-13 21 -62 33 -133 33 -39 0 -79 5 -89 10 -13 7 -21 7 -25 -1z m146 -29 c35
-19 21 -100 -18 -100 -9 0 -13 17 -13 55 0 59 1 60 31 45z m17 -136 c16 -11
22 -25 22 -53 0 -40 -10 -54 -47 -65 -22 -7 -23 -5 -23 63 0 76 7 84 48 55z"/>
<path d="M3425 1192 c-2 -2 0 -15 5 -28 6 -16 5 -32 -5 -51 -19 -35 -19 -114
-1 -156 23 -55 50 -71 124 -75 58 -3 71 -1 96 19 81 63 71 231 -15 271 -30 14
-194 30 -204 20z m155 -38 c18 -21 25 -159 11 -211 -10 -35 -16 -43 -36 -43
-34 0 -48 52 -43 156 5 103 32 142 68 98z"/>
<path d="M855 1035 l0 -155 84 0 c110 0 162 23 185 81 22 53 20 102 -5 150
-26 53 -67 70 -156 67 -38 -2 -77 0 -88 4 -19 8 -20 4 -20 -147z m166 89 c17
-32 18 -161 1 -191 -8 -14 -22 -23 -37 -23 l-25 0 0 120 c0 119 0 120 23 120
15 0 29 -9 38 -26z"/>
<path d="M1175 1181 c-3 -6 -1 -20 5 -32 8 -13 10 -66 8 -145 l-3 -124 63 0
c61 0 62 1 51 21 -7 14 -10 67 -7 150 l3 128 -36 -1 c-20 0 -45 3 -57 6 -11 4
-23 2 -27 -3z"/>
<path d="M1946 1161 c4 -14 8 -83 9 -154 l0 -127 56 0 56 0 -5 55 c-6 68 10
72 34 10 20 -53 37 -65 91 -65 51 0 67 16 42 41 -10 10 -19 28 -19 39 0 16 -7
20 -32 20 -18 0 -40 5 -48 10 -12 8 -9 10 12 10 42 0 82 40 82 83 0 70 -44 93
-192 99 l-94 4 8 -25z m156 -18 c27 -24 25 -97 -4 -117 -12 -9 -26 -16 -30
-16 -5 0 -8 34 -8 75 0 79 7 89 42 58z"/>
<path d="M2270 1167 c0 -14 5 -29 10 -32 13 -8 13 -196 0 -229 l-10 -26 63 0
62 0 0 150 0 150 -47 0 c-25 0 -53 3 -62 6 -12 5 -16 0 -16 -19z"/>
<path d="M2764 1175 c-4 -9 -2 -21 5 -28 6 -6 11 -47 11 -98 0 -48 4 -99 10
-113 30 -79 247 -74 264 6 3 13 7 71 8 131 l3 107 -47 0 c-25 0 -53 3 -62 6
-11 4 -16 0 -16 -14 0 -12 5 -24 10 -27 13 -8 13 -201 0 -226 -6 -10 -19 -19
-30 -19 -34 0 -42 35 -39 161 l4 119 -42 0 c-23 0 -48 3 -57 6 -10 4 -18 0
-22 -11z"/>
<path d="M3736 1161 c12 -44 16 -221 5 -252 l-10 -29 63 0 63 0 -5 58 -5 57
22 -19 c11 -11 21 -27 21 -36 0 -36 34 -62 79 -62 58 1 76 17 50 43 -10 10
-19 28 -19 39 0 17 -7 20 -39 20 -22 0 -43 5 -46 10 -3 6 5 10 19 10 30 0 74
37 77 65 7 90 -25 110 -194 117 l-89 5 8 -26z m156 -18 c27 -24 25 -97 -4
-117 -12 -9 -26 -16 -30 -16 -5 0 -8 34 -8 75 0 79 7 89 42 58z"/>
<path d="M1392 1166 c-52 -24 -64 -84 -24 -128 8 -10 38 -31 66 -47 61 -34 79
-53 70 -75 -11 -30 -63 -20 -100 19 -41 44 -54 44 -54 1 0 -31 4 -36 36 -46
20 -7 67 -10 105 -8 83 4 113 27 113 82 0 42 -23 70 -84 101 -54 28 -84 59
-77 80 7 16 44 20 64 7 6 -4 16 -20 22 -35 6 -15 17 -27 24 -27 12 0 52 68 45
76 -2 1 -41 5 -88 9 -64 4 -93 2 -118 -9z"/>
<path d="M1635 1135 c0 -36 3 -45 18 -45 11 0 20 10 23 29 7 33 32 49 40 26 3
-7 4 -70 2 -139 l-3 -126 62 0 63 0 -10 26 c-6 14 -10 74 -10 134 0 88 3 109
16 114 10 4 18 -3 26 -24 5 -17 19 -35 29 -41 17 -9 19 -6 19 41 l0 50 -137 0
-138 0 0 -45z"/>
<path d="M3105 1135 c0 -62 29 -57 49 7 3 11 11 15 21 11 14 -5 16 -24 13
-139 l-3 -134 62 0 63 0 -10 26 c-6 14 -10 74 -10 134 0 88 3 109 16 114 10 4
18 -3 26 -24 5 -17 19 -35 29 -41 17 -9 19 -6 19 41 l0 50 -137 0 -138 0 0
-45z"/>
</g>
</svg>
